<svg width="131" height="16" viewBox="0 0 131 16" fill="none" xmlns="http://www.w3.org/2000/svg">
<path d="M9.07031 8.53125H15.8203V9.16406H14.2969V15L11.4609 14.5078C10.4297 14.9766 9.28906 15.2109 8.03906 15.2109C6.46094 15.2109 5.0625 14.8281 3.84375 14.0625C1.82812 12.7656 0.820312 10.7188 0.820312 7.92188C0.820312 5.75 1.46094 4.00781 2.74219 2.69531C4.08594 1.36719 5.82812 0.703125 7.96875 0.703125C9.15625 0.703125 10.2891 0.929687 11.3672 1.38281L13.5703 0.9375L13.6641 5.90625H12.9375C12.9375 5.89062 12.9375 5.875 12.9375 5.85938C12.3438 2.90625 10.9297 1.42969 8.69531 1.42969C8.50781 1.42969 8.32031 1.4375 8.13281 1.45312C5.67969 1.71875 4.45312 3.90625 4.45312 8.01562C4.45312 9.39062 4.57812 10.5469 4.82812 11.4844C5.375 13.4844 6.60156 14.4844 8.50781 14.4844C9.49219 14.4844 10.3438 14.2031 11.0625 13.6406V9.16406H9.07031V8.53125ZM23.7891 15H16.7578V14.3672H18.6328V1.57031H16.7578V0.9375H24.5859C25.8359 0.9375 26.8984 1.23437 27.7734 1.82812C28.8047 2.53125 29.3203 3.46094 29.3203 4.61719C29.3203 4.96094 29.2734 5.29688 29.1797 5.625C28.8047 6.95312 27.7969 7.84375 26.1562 8.29688L29.7656 14.3906H30.0703C30.1484 14.3906 30.2266 14.3984 30.3047 14.4141C30.5547 14.4609 30.6797 14.6562 30.6797 15L26.5547 15.0234L23.0625 8.57812H21.9141V14.3672H23.7891V15ZM23.1797 1.57031H21.9141V7.875H23.3672C23.8359 7.875 24.25 7.75781 24.6094 7.52344C25.4219 7.00781 25.8281 6.07812 25.8281 4.73438C25.8281 4.29688 25.7734 3.875 25.6641 3.46875C25.2891 2.20312 24.4609 1.57031 23.1797 1.57031ZM42.9609 5.4375H42.2812L41.7656 3.82031C41.7188 3.67969 41.6641 3.53906 41.6016 3.39844C41.1172 2.17969 40.2344 1.57031 38.9531 1.57031H36.3047V7.40625H40.8047V8.10938H36.3047V14.3672H38.9531C39.25 14.3672 39.5312 14.3359 39.7969 14.2734C40.6875 14.0391 41.3359 13.3203 41.7422 12.1172L42.2812 10.5H42.9609L42.8672 15H31.1484V14.3672H33.0234V1.57031H31.1484V0.9375H42.8672L42.9609 5.4375ZM56.2969 5.4375H55.6172L55.1016 3.82031C55.0547 3.67969 55 3.53906 54.9375 3.39844C54.4531 2.17969 53.5703 1.57031 52.2891 1.57031H49.6406V7.40625H54.1406V8.10938H49.6406V14.3672H52.2891C52.5859 14.3672 52.8672 14.3359 53.1328 14.2734C54.0234 14.0391 54.6719 13.3203 55.0781 12.1172L55.6172 10.5H56.2969L56.2031 15H44.4844V14.3672H46.3594V1.57031H44.4844V0.9375H56.2031L56.2969 5.4375ZM68.0625 1.57031V0.9375H72.7969V1.57031H70.9219V14.8828L69.5859 15.1172L60.5625 4.59375V14.3672H61.9219C62.25 14.3984 62.4609 14.6094 62.5547 15H57.7031V14.3672H59.5781V1.57031H57.7031V0.9375H61.6641L69.9375 10.6406V1.57031H68.0625ZM91.5 0.9375V1.57031H89.625V14.3672H90.8672C91.1953 14.3984 91.4062 14.6094 91.5 15H84.5859V14.3672H86.4609V3.23438L81.4219 15.2344H81L76.0078 5.53125V14.3672H77.25C77.5781 14.3984 77.7891 14.6094 77.8828 15H73.1484V14.3672H75.0234V1.57031H73.1484V0.9375H77.3438L82.2656 11.0156L86.4609 0.9375H91.5ZM99.2344 15H92.2031V14.3672H94.0781V1.57031H92.2031V0.9375H99.2344V1.57031H97.3594V14.3672H98.6016C98.9297 14.3984 99.1406 14.6094 99.2344 15ZM110.414 1.57031V0.9375H115.148V1.57031H113.273V14.8828L111.938 15.1172L102.914 4.59375V14.3672H104.273C104.602 14.3984 104.812 14.6094 104.906 15H100.055V14.3672H101.93V1.57031H100.055V0.9375H104.016L112.289 10.6406V1.57031H110.414ZM115.734 0.9375H122.648C124.383 0.9375 125.898 1.35156 127.195 2.17969C129.164 3.46094 130.148 5.40625 130.148 8.01562C130.148 10.0625 129.461 11.7344 128.086 13.0312C126.68 14.3438 124.891 15 122.719 15H115.734V14.3672H117.609V1.57031H115.734V0.9375ZM122.719 1.57031H120.891V14.3672H122.672C123.406 14.3672 124.023 14.2188 124.523 13.9219C125.82 13.1562 126.469 11.1484 126.469 7.89844C126.469 6.27344 126.312 4.96875 126 3.98438C125.453 2.375 124.359 1.57031 122.719 1.57031Z" fill="#1E1E1E"/>
</svg>
